<?xml version="1.0" encoding="UTF-8" standalone="no"?><!-- Generator: Gravit.io --><svg xmlns="http://www.w3.org/2000/svg" xmlns:xlink="http://www.w3.org/1999/xlink" style="isolation:isolate" viewBox="0 0 100 100" width="100pt" height="100pt"><defs><clipPath id="_clipPath_OV0zimpMEmH33Pb9AexGd0B4CweaJy17"><rect width="100" height="100"/></clipPath></defs><g clip-path="url(#_clipPath_OV0zimpMEmH33Pb9AexGd0B4CweaJy17)"><path d=" M 81.313 15.375 C 82.174 14.231 83.438 13.478 84.851 13.276 C 86.264 13.074 87.704 13.437 88.847 14.298 C 89.991 15.159 90.744 16.424 90.946 17.837 C 91.148 19.249 90.785 20.689 89.923 21.833 C 85.147 28.197 80.546 34.682 76.119 41.288 C 72.54 46.656 69.177 52.159 66.042 57.783 C 63.23 62.868 60.66 68.089 58.333 73.403 C 53.92 83.615 50.852 88.523 46.82 91.805 C 42.859 89.273 41.715 87.936 37.375 82.758 C 35.777 80.561 34.236 78.745 32.554 76.753 C 31.007 74.924 29.366 73.148 27.657 71.452 C 25.921 69.73 24.159 68.035 22.369 66.38 C 21.131 65.209 19.88 64.026 18.656 62.842 C 17.62 61.859 17.028 60.5 17.001 59.074 C 16.974 57.648 17.512 56.262 18.508 55.24 C 19.49 54.204 20.849 53.612 22.275 53.585 C 23.701 53.558 25.087 54.096 26.11 55.092 C 27.307 56.235 28.504 57.379 29.715 58.509 C 31.585 60.245 33.429 62.007 35.232 63.81 C 37.169 65.734 39.026 67.725 40.788 69.811 C 42.483 71.829 44.071 73.928 45.551 76.094 C 46.493 73.753 47.462 71.425 48.471 69.111 C 50.933 63.474 53.651 57.958 56.624 52.576 C 59.907 46.669 63.432 40.911 67.186 35.3 C 71.72 28.533 76.429 21.887 81.313 15.375 Z " fill="rgb(255,255,255)"/></g></svg>