<?xml version="1.0" encoding="UTF-8" standalone="no"?><!-- Generator: Gravit.io --><svg xmlns="http://www.w3.org/2000/svg" xmlns:xlink="http://www.w3.org/1999/xlink" style="isolation:isolate" viewBox="0 0 100 100" width="100pt" height="100pt"><defs><clipPath id="_clipPath_aUDwJACKA8K16WdDvzluCuH8rE2SUniK"><rect width="100" height="100"/></clipPath></defs><g clip-path="url(#_clipPath_aUDwJACKA8K16WdDvzluCuH8rE2SUniK)"><path d="M 12.257 51 L 23.743 51 C 24.437 51 25 51.563 25 52.257 L 25 63.743 C 25 64.437 24.437 65 23.743 65 L 12.257 65 C 11.563 65 11 64.437 11 63.743 L 11 52.257 C 11 51.563 11.563 51 12.257 51 Z" style="stroke:none;fill:#FFFFFF;stroke-miterlimit:10;"/><path d="M 28.257 51 L 39.743 51 C 40.437 51 41 51.563 41 52.257 L 41 63.743 C 41 64.437 40.437 65 39.743 65 L 28.257 65 C 27.563 65 27 64.437 27 63.743 L 27 52.257 C 27 51.563 27.563 51 28.257 51 Z" style="stroke:none;fill:#FFFFFF;stroke-miterlimit:10;"/><path d="M 44.257 51 L 55.743 51 C 56.437 51 57 51.563 57 52.257 L 57 63.743 C 57 64.437 56.437 65 55.743 65 L 44.257 65 C 43.563 65 43 64.437 43 63.743 L 43 52.257 C 43 51.563 43.563 51 44.257 51 Z" style="stroke:none;fill:#FFFFFF;stroke-miterlimit:10;"/><path d="M 60.257 51 L 71.743 51 C 72.437 51 73 51.563 73 52.257 L 73 63.743 C 73 64.437 72.437 65 71.743 65 L 60.257 65 C 59.563 65 59 64.437 59 63.743 L 59 52.257 C 59 51.563 59.563 51 60.257 51 Z" style="stroke:none;fill:#FFFFFF;stroke-miterlimit:10;"/><path d="M 76.257 51 L 87.743 51 C 88.437 51 89 51.563 89 52.257 L 89 63.743 C 89 64.437 88.437 65 87.743 65 L 76.257 65 C 75.563 65 75 64.437 75 63.743 L 75 52.257 C 75 51.563 75.563 51 76.257 51 Z" style="stroke:none;fill:#FFFFFF;stroke-miterlimit:10;"/><path d="M 12.257 67 L 23.743 67 C 24.437 67 25 67.563 25 68.257 L 25 79.743 C 25 80.437 24.437 81 23.743 81 L 12.257 81 C 11.563 81 11 80.437 11 79.743 L 11 68.257 C 11 67.563 11.563 67 12.257 67 Z" style="stroke:none;fill:#FFFFFF;stroke-miterlimit:10;"/><path d="M 28.257 67 L 39.743 67 C 40.437 67 41 67.563 41 68.257 L 41 79.743 C 41 80.437 40.437 81 39.743 81 L 28.257 81 C 27.563 81 27 80.437 27 79.743 L 27 68.257 C 27 67.563 27.563 67 28.257 67 Z" style="stroke:none;fill:#FFFFFF;stroke-miterlimit:10;"/><path d="M 44.257 67 L 55.743 67 C 56.437 67 57 67.563 57 68.257 L 57 79.743 C 57 80.437 56.437 81 55.743 81 L 44.257 81 C 43.563 81 43 80.437 43 79.743 L 43 68.257 C 43 67.563 43.563 67 44.257 67 Z" style="stroke:none;fill:#FFFFFF;stroke-miterlimit:10;"/><path d="M 60.257 67 L 71.743 67 C 72.437 67 73 67.563 73 68.257 L 73 79.743 C 73 80.437 72.437 81 71.743 81 L 60.257 81 C 59.563 81 59 80.437 59 79.743 L 59 68.257 C 59 67.563 59.563 67 60.257 67 Z" style="stroke:none;fill:#FFFFFF;stroke-miterlimit:10;"/><path d="M 44.257 35 L 55.743 35 C 56.437 35 57 35.563 57 36.257 L 57 47.743 C 57 48.437 56.437 49 55.743 49 L 44.257 49 C 43.563 49 43 48.437 43 47.743 L 43 36.257 C 43 35.563 43.563 35 44.257 35 Z" style="stroke:none;fill:#FFFFFF;stroke-miterlimit:10;"/><path d="M 60.257 35 L 71.743 35 C 72.437 35 73 35.563 73 36.257 L 73 47.743 C 73 48.437 72.437 49 71.743 49 L 60.257 49 C 59.563 49 59 48.437 59 47.743 L 59 36.257 C 59 35.563 59.563 35 60.257 35 Z" style="stroke:none;fill:#FFFFFF;stroke-miterlimit:10;"/><path d="M 76.257 35 L 87.743 35 C 88.437 35 89 35.563 89 36.257 L 89 47.743 C 89 48.437 88.437 49 87.743 49 L 76.257 49 C 75.563 49 75 48.437 75 47.743 L 75 36.257 C 75 35.563 75.563 35 76.257 35 Z" style="stroke:none;fill:#FFFFFF;stroke-miterlimit:10;"/><path d="M 13.968 19 L 86.032 19 C 87.67 19 89 20.33 89 21.968 L 89 30.032 C 89 31.67 87.67 33 86.032 33 L 13.968 33 C 12.33 33 11 31.67 11 30.032 L 11 21.968 C 11 20.33 12.33 19 13.968 19 Z" style="stroke:none;fill:#FFFFFF;stroke-miterlimit:10;"/></g></svg>