<?xml version="1.0" encoding="UTF-8" standalone="no"?><!-- Generator: Gravit.io --><svg xmlns="http://www.w3.org/2000/svg" xmlns:xlink="http://www.w3.org/1999/xlink" style="isolation:isolate" viewBox="0 0 100 100" width="100pt" height="100pt"><defs><clipPath id="_clipPath_yZn8LY9nfVIX8aQiUoYKLLkZ6OJS4pYs"><rect width="100" height="100"/></clipPath></defs><g clip-path="url(#_clipPath_yZn8LY9nfVIX8aQiUoYKLLkZ6OJS4pYs)"><path d=" M 35.069 68.791 C 37.871 57.13 47.497 43.233 48.465 43.774 C 49.252 44.215 51.645 50.615 55.181 56.198 L 55.181 56.198 C 56.693 54.481 57.766 53.142 58.153 53.055 C 58.883 52.891 63.223 61.763 64.603 69.727 C 64.746 70.221 64.853 70.732 64.935 71.252 C 65.194 72.9 65.182 74.529 64.92 76.089 C 64.912 76.181 64.9 76.271 64.887 76.359 L 64.886 76.359 C 63.762 82.653 58.765 87.838 52.098 88.887 C 51.948 88.911 51.799 88.932 51.651 88.95 C 65.785 88.096 77 76.347 77 62 C 77 55.563 74.742 49.648 70.976 45.007 L 71 45 C 61.788 34.067 57.75 11.375 56 10 C 54.474 8.801 34.045 30.211 26.025 49.613 L 26.025 49.613 L 26.025 49.613 C 24.087 53.318 23 57.533 23 62 C 23 75.767 33.326 87.141 46.653 88.778 C 40.512 87.535 35.493 82.598 34.462 76.05 C 34.066 73.529 34.305 71.054 35.069 68.791 Z " fill-rule="evenodd" fill="rgb(255,255,255)"/></g></svg>