<?xml version="1.0" encoding="UTF-8" standalone="no"?><!-- Generator: Gravit.io --><svg xmlns="http://www.w3.org/2000/svg" xmlns:xlink="http://www.w3.org/1999/xlink" style="isolation:isolate" viewBox="0 0 100 100" width="100pt" height="100pt"><defs><clipPath id="_clipPath_8higGd5MzaOguKtFlnuntBPdAw701ngw"><rect width="100" height="100"/></clipPath></defs><g clip-path="url(#_clipPath_8higGd5MzaOguKtFlnuntBPdAw701ngw)"><path d=" M 5 50 C 5 25.164 25.164 5 50 5 C 74.836 5 95 25.164 95 50 C 95 74.836 74.836 95 50 95 C 25.164 95 5 74.836 5 50 Z  M 15 50 C 15 30.683 30.683 15 50 15 C 69.317 15 85 30.683 85 50 C 85 69.317 69.317 85 50 85 C 30.683 85 15 69.317 15 50 Z " fill-rule="evenodd" fill="rgb(255,255,255)"/><circle vector-effect="non-scaling-stroke" cx="50" cy="29.000000000000004" r="7" fill="rgb(255,255,255)"/><path d=" M 55.99 44 L 56 74.12 C 56 75.71 55.37 77.23 54.24 78.36 C 53.12 79.48 51.59 80.12 50 80.12 C 48.41 80.12 46.88 79.49 45.76 78.36 C 44.63 77.24 44 75.71 44 74.12 L 43.99 44 C 43.99 42.41 44.62 40.88 45.75 39.76 C 46.87 38.63 48.4 38 49.99 38 C 51.58 38 53.11 38.63 54.23 39.76 C 55.36 40.88 55.99 42.41 55.99 44 Z " fill="rgb(255,255,255)"/></g></svg>