<?xml version="1.0" encoding="UTF-8" standalone="no"?><!-- Generator: Gravit.io --><svg xmlns="http://www.w3.org/2000/svg" xmlns:xlink="http://www.w3.org/1999/xlink" style="isolation:isolate" viewBox="0 0 100 100" width="100pt" height="100pt"><defs><clipPath id="_clipPath_IJYfSv8QFBIUOoPIuzEcdxOizyioMgYG"><rect width="100" height="100"/></clipPath></defs><g clip-path="url(#_clipPath_IJYfSv8QFBIUOoPIuzEcdxOizyioMgYG)"><rect width="100" height="100" style="fill:rgb(0,0,0)" fill-opacity="0"/><path d=" M 87.134 19.636 C 93.93 27.896 98 38.477 98 50 C 98 76.492 76.492 98 50 98 C 38.477 98 27.896 93.931 19.636 87.134 L 25.324 81.446 C 28.106 83.644 31.175 85.465 34.45 86.86 C 39.37 88.94 44.66 90.01 50 90 C 60.6 90 70.78 85.78 78.28 78.28 C 85.78 70.78 90 60.6 90 50 C 90.01 44.66 88.94 39.37 86.86 34.45 C 85.465 31.175 83.644 28.106 81.446 25.324 L 87.134 19.636 Z " fill-rule="evenodd" fill="rgb(255,255,255)"/><path d=" M 12.596 80.034 C 5.962 71.823 2 61.37 2 50 C 2 23.508 23.508 2 50 2 C 61.37 2 71.823 5.962 80.034 12.596 L 74.339 18.291 C 71.647 16.21 68.693 14.479 65.55 13.14 C 60.63 11.06 55.34 9.99 50 10 C 39.4 10 29.22 14.22 21.72 21.72 C 14.22 29.22 10 39.4 10 50 C 9.99 55.34 11.06 60.63 13.14 65.55 C 14.479 68.693 16.21 71.647 18.291 74.339 L 12.596 80.034 Z " fill-rule="evenodd" fill="rgb(255,255,255)"/><line x1="49.046" y1="51.954" x2="49.046" y2="71.5" vector-effect="non-scaling-stroke" stroke-width="8" stroke="rgb(255,255,255)" stroke-linejoin="miter" stroke-linecap="square" stroke-miterlimit="3"/><line x1="43.046" y1="72.5" x2="55.046" y2="72.5" vector-effect="non-scaling-stroke" stroke-width="8" stroke="rgb(255,255,255)" stroke-linejoin="miter" stroke-linecap="square" stroke-miterlimit="3"/><g><line x1="49.046" y1="34.5" x2="49.046" y2="51.954" vector-effect="non-scaling-stroke" stroke-width="8" stroke="rgb(255,255,255)" stroke-linejoin="miter" stroke-linecap="square" stroke-miterlimit="3"/><line x1="47.33" y1="33.569" x2="38.761" y2="40" vector-effect="non-scaling-stroke" stroke-width="8" stroke="rgb(255,255,255)" stroke-linejoin="miter" stroke-linecap="butt" stroke-miterlimit="3"/></g><g clip-path="url(#_clipPath_IasdqXF69tlAi7SGVh5Ew5WWBEyUjyhU)"><text transform="matrix(1,0,0,1,43.307,22.826)" style="font-family:'Open Sans';font-weight:700;font-size:12px;font-style:normal;fill:#ffffff;stroke:none;">12</text></g><defs><clipPath id="_clipPath_IasdqXF69tlAi7SGVh5Ew5WWBEyUjyhU"><rect x="0" y="0" width="15.477" height="16" transform="matrix(1,0,0,1,43.307,10)"/></clipPath></defs><g clip-path="url(#_clipPath_NnBnBQNpoTp8FQ13MphyC347acDY9v9A)"><text transform="matrix(1,0,0,1,14,54.826)" style="font-family:'Open Sans';font-weight:700;font-size:12px;font-style:normal;fill:#ffffff;stroke:none;">9</text></g><defs><clipPath id="_clipPath_NnBnBQNpoTp8FQ13MphyC347acDY9v9A"><rect x="0" y="0" width="9.477" height="15.046" transform="matrix(1,0,0,1,14,42)"/></clipPath></defs><g clip-path="url(#_clipPath_PiwK478WRTtv9uORGjVNeNY6WLI4kcbf)"><text transform="matrix(1,0,0,1,16.523,37.826)" style="font-family:'Open Sans';font-weight:700;font-size:10px;font-style:normal;fill:#ffffff;stroke:none;">10</text></g><defs><clipPath id="_clipPath_PiwK478WRTtv9uORGjVNeNY6WLI4kcbf"><rect x="0" y="0" width="15.477" height="16" transform="matrix(1,0,0,1,16.523,25)"/></clipPath></defs><g clip-path="url(#_clipPath_pHbOaioHfQEvZ6MMBHHzDgyJ3y1Ncgwf)"><text transform="matrix(1,0,0,1,19.739,70.826)" style="font-family:'Open Sans';font-weight:700;font-size:10px;font-style:normal;fill:#ffffff;stroke:none;">8</text></g><defs><clipPath id="_clipPath_pHbOaioHfQEvZ6MMBHHzDgyJ3y1Ncgwf"><rect x="0" y="0" width="15.477" height="16" transform="matrix(1,0,0,1,19.739,58)"/></clipPath></defs><g clip-path="url(#_clipPath_6ftc6UB9NtfwdcKyHbE8G68Vhx2jxFWa)"><text transform="matrix(1,0,0,1,64,25.826)" style="font-family:'Open Sans';font-weight:700;font-size:10px;font-style:normal;fill:#ffffff;stroke:none;">1</text></g><defs><clipPath id="_clipPath_6ftc6UB9NtfwdcKyHbE8G68Vhx2jxFWa"><rect x="0" y="0" width="15.477" height="16" transform="matrix(1,0,0,1,64,13)"/></clipPath></defs><g clip-path="url(#_clipPath_MkUhMJ2IFEtMhGijYlDT1DvAkAQ0aOsq)"><text transform="matrix(1,0,0,1,27.477,25.826)" style="font-family:'Open Sans';font-weight:700;font-size:10px;font-style:normal;fill:#ffffff;stroke:none;">11</text></g><defs><clipPath id="_clipPath_MkUhMJ2IFEtMhGijYlDT1DvAkAQ0aOsq"><rect x="0" y="0" width="15.477" height="16" transform="matrix(1,0,0,1,27.477,13)"/></clipPath></defs><g clip-path="url(#_clipPath_xoHiE7Yrx5yNH6CoqPDkNXaLK9DOjfXY)"><text transform="matrix(1,0,0,1,59,59.711)" style="font-family:'Open Sans';font-weight:700;font-size:30px;font-style:normal;fill:#ffffff;stroke:none;">zł</text></g><defs><clipPath id="_clipPath_xoHiE7Yrx5yNH6CoqPDkNXaLK9DOjfXY"><rect x="0" y="0" width="27" height="40.854" transform="matrix(1,0,0,1,59,27.646)"/></clipPath></defs></g></svg>