<?xml version="1.0" encoding="UTF-8" standalone="no"?><!-- Generator: Gravit.io --><svg xmlns="http://www.w3.org/2000/svg" xmlns:xlink="http://www.w3.org/1999/xlink" style="isolation:isolate" viewBox="0 0 100 100" width="100pt" height="100pt"><defs><clipPath id="_clipPath_QaYg0E1xKzb0cTOFOaZgm5wcL8W5B9Qx"><rect width="100" height="100"/></clipPath></defs><g clip-path="url(#_clipPath_QaYg0E1xKzb0cTOFOaZgm5wcL8W5B9Qx)"><rect width="100" height="100" style="fill:rgb(157,82,82)" fill-opacity="0"/><path d="M 32.489 24.25 L 80.511 24.25 C 81.609 24.25 82.5 25.141 82.5 26.239 L 82.5 33.261 C 82.5 34.359 81.609 35.25 80.511 35.25 L 32.489 35.25 C 31.391 35.25 30.5 34.359 30.5 33.261 L 30.5 26.239 C 30.5 25.141 31.391 24.25 32.489 24.25 Z" style="stroke:none;fill:#FFFFFF;stroke-miterlimit:10;"/><path d="M 32.489 37.75 L 80.511 37.75 C 81.609 37.75 82.5 38.641 82.5 39.739 L 82.5 46.761 C 82.5 47.859 81.609 48.75 80.511 48.75 L 32.489 48.75 C 31.391 48.75 30.5 47.859 30.5 46.761 L 30.5 39.739 C 30.5 38.641 31.391 37.75 32.489 37.75 Z" style="stroke:none;fill:#FFFFFF;stroke-miterlimit:10;"/><path d="M 33.468 51.25 L 79.532 51.25 C 81.17 51.25 82.5 52.58 82.5 54.218 L 82.5 72.782 C 82.5 74.42 81.17 75.75 79.532 75.75 L 33.468 75.75 C 31.83 75.75 30.5 74.42 30.5 72.782 L 30.5 54.218 C 30.5 52.58 31.83 51.25 33.468 51.25 Z" style="stroke:none;fill:#FFFFFF;stroke-miterlimit:10;"/><path d=" M 19.124 24.25 L 26.876 24.25 C 27.772 24.25 28.5 24.978 28.5 25.874 L 28.5 33.626 C 28.5 34.522 27.772 35.25 26.876 35.25 L 19.124 35.25 C 18.228 35.25 17.5 34.522 17.5 33.626 L 17.5 25.874 C 17.5 24.978 18.228 24.25 19.124 24.25 Z  M 24.63 27.37 C 24.72 27.27 24.84 27.21 24.98 27.21 C 25.11 27.2 25.24 27.25 25.34 27.34 C 25.43 27.43 25.49 27.55 25.5 27.68 C 25.51 27.81 25.46 27.94 25.37 28.04 C 24.81 28.66 24.31 29.34 23.88 30.06 C 23.56 30.64 23.28 31.25 23.05 31.88 C 22.95 32.05 22.79 32.18 22.6 32.25 C 22.43 32.3 22.25 32.3 22.08 32.24 C 21.98 32.2 21.88 32.14 21.8 32.07 C 21.69 31.99 21.59 31.9 21.5 31.79 C 21.36 31.63 21.24 31.46 21.12 31.28 C 20.92 30.97 20.73 30.64 20.56 30.31 C 20.5 30.19 20.48 30.06 20.52 29.93 C 20.56 29.8 20.65 29.7 20.77 29.63 C 20.88 29.57 21.02 29.56 21.15 29.6 C 21.27 29.64 21.38 29.73 21.44 29.84 C 21.61 30.15 21.78 30.45 21.97 30.75 C 22.05 30.89 22.15 31.01 22.25 31.13 C 22.26 31.14 22.26 31.14 22.26 31.14 C 22.48 30.6 22.73 30.07 23.02 29.56 C 23.48 28.78 24.02 28.04 24.63 27.37 Z " fill-rule="evenodd" fill="rgb(255,255,255)"/><path d=" M 19.124 37.75 L 26.876 37.75 C 27.772 37.75 28.5 38.478 28.5 39.374 L 28.5 47.126 C 28.5 48.022 27.772 48.75 26.876 48.75 L 19.124 48.75 C 18.228 48.75 17.5 48.022 17.5 47.126 L 17.5 39.374 C 17.5 38.478 18.228 37.75 19.124 37.75 Z  M 24.63 40.87 C 24.72 40.77 24.84 40.71 24.98 40.71 C 25.11 40.7 25.24 40.75 25.34 40.84 C 25.43 40.93 25.49 41.05 25.5 41.18 C 25.51 41.31 25.46 41.44 25.37 41.54 C 24.81 42.16 24.31 42.84 23.88 43.56 C 23.56 44.14 23.28 44.75 23.05 45.38 C 22.95 45.55 22.79 45.68 22.6 45.75 C 22.43 45.8 22.25 45.8 22.08 45.74 C 21.98 45.7 21.88 45.64 21.8 45.57 C 21.69 45.49 21.59 45.4 21.5 45.29 C 21.36 45.13 21.24 44.96 21.12 44.78 C 20.92 44.47 20.73 44.14 20.56 43.81 C 20.5 43.69 20.48 43.56 20.52 43.43 C 20.56 43.3 20.65 43.2 20.77 43.13 C 20.88 43.07 21.02 43.06 21.15 43.1 C 21.27 43.14 21.38 43.23 21.44 43.34 C 21.61 43.65 21.78 43.95 21.97 44.25 C 22.05 44.39 22.15 44.51 22.25 44.63 C 22.26 44.64 22.26 44.64 22.26 44.64 C 22.48 44.1 22.73 43.57 23.02 43.06 C 23.48 42.28 24.02 41.54 24.63 40.87 Z " fill-rule="evenodd" fill="rgb(255,255,255)"/><path d=" M 18.724 51.25 L 26.476 51.25 C 27.372 51.25 28.1 51.978 28.1 52.874 L 28.1 60.626 C 28.1 61.522 27.372 62.25 26.476 62.25 L 18.724 62.25 C 17.828 62.25 17.1 61.522 17.1 60.626 L 17.1 52.874 C 17.1 51.978 17.828 51.25 18.724 51.25 Z  M 24.23 54.37 C 24.32 54.27 24.44 54.21 24.58 54.21 C 24.71 54.2 24.84 54.25 24.94 54.34 C 25.03 54.43 25.09 54.55 25.1 54.68 C 25.11 54.81 25.06 54.94 24.97 55.04 C 24.41 55.66 23.91 56.34 23.48 57.06 C 23.16 57.64 22.88 58.25 22.65 58.88 C 22.55 59.05 22.39 59.18 22.2 59.25 C 22.03 59.3 21.85 59.3 21.68 59.24 C 21.58 59.2 21.48 59.14 21.4 59.07 C 21.29 58.99 21.19 58.9 21.1 58.79 C 20.96 58.63 20.84 58.46 20.72 58.28 C 20.52 57.97 20.33 57.64 20.16 57.31 C 20.1 57.19 20.08 57.06 20.12 56.93 C 20.16 56.8 20.25 56.7 20.37 56.63 C 20.48 56.57 20.62 56.56 20.75 56.6 C 20.87 56.64 20.98 56.73 21.04 56.84 C 21.21 57.15 21.38 57.45 21.57 57.75 C 21.65 57.89 21.75 58.01 21.85 58.13 C 21.86 58.14 21.86 58.14 21.86 58.14 C 22.08 57.6 22.33 57.07 22.62 56.56 C 23.08 55.78 23.62 55.04 24.23 54.37 Z " fill-rule="evenodd" fill="rgb(255,255,255)"/><path d=" M 18.724 64.75 L 26.476 64.75 C 27.372 64.75 28.1 65.478 28.1 66.374 L 28.1 74.126 C 28.1 75.022 27.372 75.75 26.476 75.75 L 18.724 75.75 C 17.828 75.75 17.1 75.022 17.1 74.126 L 17.1 66.374 C 17.1 65.478 17.828 64.75 18.724 64.75 Z  M 24.23 67.87 C 24.32 67.77 24.44 67.71 24.58 67.71 C 24.71 67.7 24.84 67.75 24.94 67.84 C 25.03 67.93 25.09 68.05 25.1 68.18 C 25.11 68.31 25.06 68.44 24.97 68.54 C 24.41 69.16 23.91 69.84 23.48 70.56 C 23.16 71.14 22.88 71.75 22.65 72.38 C 22.55 72.55 22.39 72.68 22.2 72.75 C 22.03 72.8 21.85 72.8 21.68 72.74 C 21.58 72.7 21.48 72.64 21.4 72.57 C 21.29 72.49 21.19 72.4 21.1 72.29 C 20.96 72.13 20.84 71.96 20.72 71.78 C 20.52 71.47 20.33 71.14 20.16 70.81 C 20.1 70.69 20.08 70.56 20.12 70.43 C 20.16 70.3 20.25 70.2 20.37 70.13 C 20.48 70.07 20.62 70.06 20.75 70.1 C 20.87 70.14 20.98 70.23 21.04 70.34 C 21.21 70.65 21.38 70.95 21.57 71.25 C 21.65 71.39 21.75 71.51 21.85 71.63 C 21.86 71.64 21.86 71.64 21.86 71.64 C 22.08 71.1 22.33 70.57 22.62 70.06 C 23.08 69.28 23.62 68.54 24.23 67.87 Z " fill-rule="evenodd" fill="rgb(255,255,255)"/></g></svg>