<?xml version="1.0" encoding="UTF-8" standalone="no"?><!-- Generator: Gravit.io --><svg xmlns="http://www.w3.org/2000/svg" xmlns:xlink="http://www.w3.org/1999/xlink" style="isolation:isolate" viewBox="0 0 100 100" width="100pt" height="100pt"><defs><clipPath id="_clipPath_zkcfZGEDK9D2hhIXZtV6evyLbnV2XSns"><rect width="100" height="100"/></clipPath></defs><g clip-path="url(#_clipPath_zkcfZGEDK9D2hhIXZtV6evyLbnV2XSns)"><path d=" M 57.5 73 C 57.5 74.99 56.71 76.9 55.3 78.3 C 53.9 79.71 51.99 80.5 50 80.5 C 48.01 80.5 46.1 79.71 44.7 78.3 C 43.29 76.9 42.5 74.99 42.5 73 L 42.5 27 C 42.5 25.01 43.29 23.1 44.7 21.7 C 46.1 20.29 48.01 19.5 50 19.5 C 51.99 19.5 53.9 20.29 55.3 21.7 C 56.71 23.1 57.5 25.01 57.5 27 L 57.5 73 Z " fill="rgb(255,255,255)"/><path d=" M 27 57.5 C 25.01 57.5 23.1 56.71 21.7 55.3 C 20.29 53.9 19.5 51.99 19.5 50 C 19.5 48.01 20.29 46.1 21.7 44.7 C 23.1 43.29 25.01 42.5 27 42.5 L 73 42.5 C 74.99 42.5 76.9 43.29 78.3 44.7 C 79.71 46.1 80.5 48.01 80.5 50 C 80.5 51.99 79.71 53.9 78.3 55.3 C 76.9 56.71 74.99 57.5 73 57.5 L 27 57.5 Z " fill="rgb(255,255,255)"/></g></svg>