<?xml version="1.0" encoding="UTF-8" standalone="no"?><!-- Generator: Gravit.io --><svg xmlns="http://www.w3.org/2000/svg" xmlns:xlink="http://www.w3.org/1999/xlink" style="isolation:isolate" viewBox="0 0 100 100" width="100pt" height="100pt"><defs><clipPath id="_clipPath_ycEYdRQCVJ4qubQpflb8SIOsQs7PeIR4"><rect width="100" height="100"/></clipPath></defs><g clip-path="url(#_clipPath_ycEYdRQCVJ4qubQpflb8SIOsQs7PeIR4)"><rect width="100" height="100" style="fill:rgb(157,82,82)" fill-opacity="0"/><ellipse vector-effect="non-scaling-stroke" cx="49.999999999999986" cy="78.70294668710612" rx="9.978070175438596" ry="5.372807017543863" fill="rgb(255,255,255)"/><path d=" M 40.022 67.957 L 40.022 67.957 L 40.022 78.703 L 59.978 78.703 L 59.978 67.957 L 59.978 67.957 C 59.978 70.923 55.507 73.33 50 73.33 C 44.493 73.33 40.022 70.923 40.022 67.957 L 40.022 67.957 Z " fill-rule="evenodd" fill="rgb(255,255,255)"/><ellipse vector-effect="non-scaling-stroke" cx="50.006636832524336" cy="84.28508384819065" rx="4.400219963592228" ry="1.9307149161517998" fill="rgb(255,255,255)"/><path d=" M 45.752 84.053 L 42.354 81.505 L 50 81.505 L 50 84.053 L 45.752 84.053 Z " fill="rgb(255,255,255)" vector-effect="non-scaling-stroke" stroke-width="1" stroke="rgb(255,255,255)" stroke-linejoin="miter" stroke-linecap="square" stroke-miterlimit="3"/><path d=" M 54.248 84.053 L 57.646 81.505 L 50 81.505 L 50 84.053 L 54.248 84.053 Z " fill="rgb(255,255,255)" vector-effect="non-scaling-stroke" stroke-width="1" stroke="rgb(255,255,255)" stroke-linejoin="miter" stroke-linecap="square" stroke-miterlimit="3"/><path d=" M 62.465 42.202 C 62.495 42.177 62.523 42.149 62.55 42.12 C 63.02 41.61 63.39 41.01 63.63 40.36 C 63.88 39.67 64.01 38.94 64.01 38.2 C 64.03 36.91 63.63 35.65 62.86 34.63 C 62.49 34.15 62.03 33.75 61.51 33.45 C 60.97 33.16 60.36 33 59.75 33 C 59.01 33.01 58.29 33.23 57.68 33.65 C 57.08 34.06 56.59 34.61 56.23 35.24 C 56.21 35.278 56.193 35.318 56.178 35.359 C 56.156 35.398 56.137 35.438 56.12 35.48 C 55.85 36.17 55.62 36.88 55.43 37.6 C 55.19 38.48 54.97 39.36 54.79 40.26 C 54.643 40.978 54.505 41.698 54.377 42.42 L 54.377 42.42 C 53.527 42.42 52.682 42.42 51.83 42.42 L 48.59 42.42 C 47.597 42.42 46.604 42.42 45.611 42.42 C 45.484 41.698 45.347 40.978 45.2 40.26 C 45.01 39.36 44.8 38.48 44.56 37.6 C 44.36 36.88 44.13 36.17 43.86 35.48 C 43.858 35.475 43.856 35.47 43.854 35.466 L 43.854 35.466 L 43.854 35.466 C 43.836 35.388 43.807 35.311 43.77 35.24 C 43.41 34.61 42.92 34.06 42.32 33.65 C 41.71 33.23 40.99 33.01 40.25 33 C 39.64 33 39.03 33.16 38.49 33.45 C 37.97 33.75 37.51 34.15 37.14 34.63 C 36.37 35.65 35.97 36.91 35.99 38.2 C 35.99 38.94 36.12 39.67 36.37 40.36 C 36.61 41.01 36.98 41.61 37.45 42.12 C 37.451 42.121 37.452 42.122 37.453 42.123 C 37.458 42.119 37.459 42.12 37.455 42.125 C 37.505 42.181 37.561 42.229 37.62 42.271 C 37.886 42.537 38.184 42.769 38.51 42.97 C 39.07 43.31 39.67 43.59 40.29 43.78 C 41.01 44.01 41.74 44.17 42.48 44.26 C 42.953 44.321 43.43 44.367 43.906 44.402 C 44.07 45.372 44.208 46.345 44.33 47.32 C 44.69 50.12 44.98 52.92 45.21 55.74 C 45.47 58.98 45.67 62.24 45.8 65.49 C 45.81 65.76 45.93 66.01 46.13 66.19 C 46.32 66.37 46.58 66.46 46.84 66.45 C 47.11 66.44 47.36 66.32 47.54 66.13 C 47.72 65.93 47.81 65.67 47.8 65.41 C 47.66 62.13 47.46 58.85 47.2 55.58 C 46.97 52.73 46.68 49.9 46.32 47.07 C 46.208 46.188 46.085 45.309 45.949 44.433 C 46.596 44.442 47.243 44.453 47.89 44.46 C 49.937 44.495 51.985 44.507 54.032 44.516 C 53.893 45.364 53.774 46.215 53.67 47.07 C 53.3 49.9 53.01 52.73 52.78 55.58 C 52.52 58.85 52.32 62.13 52.18 65.41 C 52.17 65.67 52.27 65.93 52.45 66.13 C 52.62 66.32 52.87 66.44 53.14 66.45 C 53.4 66.46 53.66 66.37 53.86 66.19 C 54.05 66.01 54.17 65.76 54.18 65.49 C 54.32 62.24 54.52 58.98 54.78 55.74 C 55 52.92 55.29 50.12 55.65 47.32 C 55.768 46.377 55.903 45.435 56.062 44.497 C 56.518 44.46 56.974 44.418 57.43 44.36 C 58.17 44.26 58.9 44.1 59.61 43.88 C 60.24 43.68 60.84 43.41 61.4 43.06 C 61.762 42.833 62.099 42.565 62.401 42.261 C 62.41 42.251 62.419 42.241 62.431 42.235 C 62.44 42.221 62.45 42.209 62.465 42.202 Z  M 61.294 40.508 C 61.482 40.249 61.638 39.968 61.75 39.67 C 61.93 39.19 62.02 38.69 62.01 38.18 C 62.03 37.34 61.77 36.51 61.26 35.83 C 61.06 35.57 60.82 35.36 60.54 35.2 C 60.3 35.07 60.03 35 59.75 35 C 59.42 35 59.09 35.11 58.81 35.3 C 58.477 35.525 58.201 35.837 57.993 36.189 L 57.993 36.189 L 57.993 36.189 C 57.993 36.193 57.991 36.196 57.99 36.2 C 57.74 36.83 57.53 37.47 57.36 38.12 C 57.13 38.96 56.92 39.81 56.75 40.66 C 56.628 41.257 56.513 41.855 56.4 42.453 C 56.657 42.431 56.913 42.403 57.17 42.37 C 57.8 42.3 58.41 42.16 59.01 41.97 C 59.48 41.82 59.93 41.62 60.34 41.36 C 60.67 41.16 60.95 40.91 61.19 40.62 C 61.222 40.58 61.257 40.543 61.294 40.508 Z  M 38.787 40.603 C 38.559 40.322 38.376 40.006 38.25 39.67 C 38.07 39.19 37.98 38.69 37.99 38.18 C 37.97 37.34 38.23 36.51 38.74 35.83 C 38.94 35.57 39.18 35.36 39.46 35.2 C 39.7 35.07 39.97 35 40.25 35 C 40.58 35 40.91 35.11 41.19 35.3 C 41.512 35.518 41.781 35.817 41.985 36.155 C 41.989 36.17 41.994 36.185 42 36.2 C 42.24 36.83 42.45 37.47 42.63 38.12 C 42.86 38.96 43.06 39.81 43.24 40.66 C 43.356 41.23 43.466 41.8 43.575 42.371 C 43.292 42.346 43.01 42.316 42.73 42.28 C 42.11 42.2 41.49 42.06 40.9 41.88 C 40.43 41.73 39.98 41.52 39.56 41.27 C 39.272 41.09 39.008 40.861 38.787 40.603 L 38.787 40.603 Z  M 59.978 65.655 C 61.232 58.466 64.046 53.548 68.643 46.018 C 68.683 45.947 68.725 45.879 68.769 45.811 C 68.868 45.649 68.975 45.473 69.084 45.295 L 69.065 45.295 C 70.854 42.125 71.875 38.465 71.875 34.569 C 71.875 22.496 62.073 12.694 50 12.694 C 37.927 12.694 28.125 22.496 28.125 34.569 C 28.125 38.465 29.146 42.125 30.935 45.295 L 30.916 45.295 C 30.974 45.389 31.03 45.482 31.082 45.567 C 31.099 45.593 31.11 45.612 31.116 45.622 C 35.854 53.375 38.746 58.339 40.022 65.655 L 40.022 65.655 C 40.022 68.62 44.493 71.028 50 71.028 C 55.507 71.028 59.978 68.62 59.978 65.655 L 59.978 65.655 L 59.978 65.655 L 59.978 65.655 L 59.978 65.655 L 59.978 65.655 L 59.978 65.655 Z " fill-rule="evenodd" fill="rgb(255,255,255)"/></g></svg>