<?xml version="1.0" encoding="UTF-8" standalone="no"?><!-- Generator: Gravit.io --><svg xmlns="http://www.w3.org/2000/svg" xmlns:xlink="http://www.w3.org/1999/xlink" style="isolation:isolate" viewBox="0 0 100 100" width="100pt" height="100pt"><defs><clipPath id="_clipPath_AM9Aq3vsW1Rapy6bDq6hlpkhGI3rBKVe"><rect width="100" height="100"/></clipPath></defs><g clip-path="url(#_clipPath_AM9Aq3vsW1Rapy6bDq6hlpkhGI3rBKVe)"><rect width="100" height="100" style="fill:rgb(157,82,82)" fill-opacity="0"/><path d=" M 58.496 75.631 C 58.428 80.263 54.647 84 50 84 C 45.353 84 41.572 80.263 41.504 75.631 C 44.202 75.87 47.051 76 50 76 C 52.949 76 55.798 75.87 58.496 75.631 Z " fill-rule="evenodd" fill="rgb(255,255,255)"/><ellipse vector-effect="non-scaling-stroke" cx="50" cy="65" rx="29.75" ry="9" fill="rgb(255,255,255)"/><path d=" M 21.389 62.398 C 27.886 54.993 31.681 45.9 32.663 35 L 50 35 L 50 62.398 L 21.389 62.398 Z " fill="rgb(255,255,255)"/><path d=" M 78.611 62.398 C 72.114 54.993 68.319 45.9 67.337 35 L 50 35 C 47.831 44.292 47.841 53.434 50 62.398 L 78.611 62.398 Z " fill="rgb(255,255,255)"/><ellipse vector-effect="non-scaling-stroke" cx="50" cy="34.5" rx="17.33670774647888" ry="17.499999999999993" fill="rgb(255,255,255)"/></g></svg>