<?xml version="1.0" encoding="UTF-8" standalone="no"?><!-- Generator: Gravit.io --><svg xmlns="http://www.w3.org/2000/svg" xmlns:xlink="http://www.w3.org/1999/xlink" style="isolation:isolate" viewBox="0 0 100 100" width="100pt" height="100pt"><defs><clipPath id="_clipPath_r7guiCVwTPeSeykmmXOPN1ZheB0CBsV6"><rect width="100" height="100"/></clipPath></defs><g clip-path="url(#_clipPath_r7guiCVwTPeSeykmmXOPN1ZheB0CBsV6)"><path d=" M 67.54 78.99 C 68.47 79.93 69 81.2 69 82.53 C 69 83.85 68.47 85.13 67.54 86.06 C 66.6 87 65.33 87.53 64 87.53 C 62.67 87.53 61.4 87 60.46 86.06 L 24.4 50 L 60.46 13.94 C 61.4 13 62.67 12.47 64 12.47 C 65.33 12.47 66.6 13 67.54 13.94 C 68.47 14.87 69 16.15 69 17.47 C 69 18.8 68.47 20.07 67.54 21.01 L 38.54 50 L 67.54 78.99 Z " fill="rgb(255,255,255)"/></g></svg>