<?xml version="1.0" encoding="UTF-8" standalone="no"?><!-- Generator: Gravit.io --><svg xmlns="http://www.w3.org/2000/svg" xmlns:xlink="http://www.w3.org/1999/xlink" style="isolation:isolate" viewBox="0 0 100 100" width="100pt" height="100pt"><defs><clipPath id="_clipPath_eUK3wPKxtVefBCGYY8JkllIyPuTqFD1E"><rect width="100" height="100"/></clipPath></defs><g clip-path="url(#_clipPath_eUK3wPKxtVefBCGYY8JkllIyPuTqFD1E)"><path d=" M 34 50 C 34 46.689 36.689 44 40 44 C 43.311 44 46 46.689 46 50 C 46 53.311 43.311 56 40 56 C 36.689 56 34 53.311 34 50 L 34 50 Z  M 43.302 32.5 L 56.698 32.5 C 66.109 32.5 73.75 40.141 73.75 49.552 L 73.75 50.448 C 73.75 59.859 66.109 67.5 56.698 67.5 L 43.302 67.5 C 33.891 67.5 26.25 59.859 26.25 50.448 L 26.25 49.552 C 26.25 40.141 33.891 32.5 43.302 32.5 L 43.302 32.5 Z  M 54 50 C 54 46.689 56.689 44 60 44 C 63.311 44 66 46.689 66 50 C 66 53.311 63.311 56 60 56 C 56.689 56 54 53.311 54 50 Z " fill-rule="evenodd" fill="rgb(255,255,255)"/></g></svg>