<?xml version="1.0" encoding="UTF-8" standalone="no"?><!-- Generator: Gravit.io --><svg xmlns="http://www.w3.org/2000/svg" xmlns:xlink="http://www.w3.org/1999/xlink" style="isolation:isolate" viewBox="0 0 100 100" width="100pt" height="100pt"><defs><clipPath id="_clipPath_1zA58ItMsfpmQkVeUIov7Tc8eV5WFDOj"><rect width="100" height="100"/></clipPath></defs><g clip-path="url(#_clipPath_1zA58ItMsfpmQkVeUIov7Tc8eV5WFDOj)"><path d=" M 23.25 39.25 C 23.25 33.593 27.843 29 33.5 29 C 39.157 29 43.75 33.593 43.75 39.25 C 43.75 44.907 39.157 49.5 33.5 49.5 C 27.843 49.5 23.25 44.907 23.25 39.25 L 23.25 39.25 L 23.25 39.25 Z  M 56.25 39.25 C 56.25 33.593 60.843 29 66.5 29 C 72.157 29 76.75 33.593 76.75 39.25 C 76.75 44.907 72.157 49.5 66.5 49.5 C 60.843 49.5 56.25 44.907 56.25 39.25 L 56.25 39.25 Z  M 8 50 C 8 26.82 26.82 8 50 8 C 73.18 8 92 26.82 92 50 C 92 73.18 73.18 92 50 92 C 26.82 92 8 73.18 8 50 L 8 50 L 8 50 Z  M 72.336 64 C 71.797 72.898 61.996 80 50 80 C 38.004 80 28.203 72.898 27.664 64 L 72.336 64 L 72.336 64 Z " fill-rule="evenodd" fill="rgb(255,255,255)"/><rect x="21" y="26" width="57" height="10" transform="matrix(1,0,0,1,0,0)" fill="rgb(255,255,255)"/><circle vector-effect="non-scaling-stroke" cx="33.5" cy="38.50000000000001" r="4.5" fill="rgb(255,255,255)"/><circle vector-effect="non-scaling-stroke" cx="66.5" cy="38.500000000000014" r="4.5" fill="rgb(255,255,255)"/><ellipse vector-effect="non-scaling-stroke" cx="50.5" cy="74" rx="11.5" ry="4" fill="rgb(255,255,255)"/></g></svg>