<?xml version="1.0" encoding="UTF-8" standalone="no"?><!-- Generator: Gravit.io --><svg xmlns="http://www.w3.org/2000/svg" xmlns:xlink="http://www.w3.org/1999/xlink" style="isolation:isolate" viewBox="0 0 100 100" width="100pt" height="100pt"><defs><clipPath id="_clipPath_FBGF5IKiQ9R6LoIJZ3ldwU6bDs9s5dZP"><rect width="100" height="100"/></clipPath></defs><g clip-path="url(#_clipPath_FBGF5IKiQ9R6LoIJZ3ldwU6bDs9s5dZP)"><rect width="100" height="100" style="fill:rgb(157,82,82)" fill-opacity="0"/><path d=" M 46.875 56.246 L 46.875 40.391 C 54.856 43.98 64.209 44 74.875 40.391 C 77.219 41.016 77.094 68.235 74.875 68.391 C 64.163 72.458 54.86 72.488 46.875 68.391 L 46.875 56.251 L 46.875 56.251 C 46.876 60.98 49.116 64.82 51.875 64.82 C 54.635 64.82 56.875 60.979 56.875 56.248 C 56.875 51.518 54.635 47.677 51.875 47.677 C 49.116 47.677 46.876 51.516 46.875 56.246 Z  M 48.87 56.25 C 48.87 55.28 48.98 54.32 49.21 53.39 C 49.4 52.6 49.69 51.86 50.08 51.17 C 50.35 50.69 50.71 50.27 51.14 49.94 C 51.35 49.78 51.61 49.69 51.87 49.68 C 52.14 49.69 52.4 49.78 52.61 49.94 C 53.04 50.27 53.4 50.69 53.67 51.17 C 54.06 51.86 54.35 52.6 54.54 53.38 C 54.77 54.32 54.88 55.28 54.87 56.25 C 54.88 57.21 54.77 58.18 54.54 59.12 C 54.35 59.89 54.06 60.64 53.67 61.33 C 53.4 61.81 53.04 62.22 52.61 62.55 C 52.4 62.71 52.14 62.81 51.87 62.82 C 51.61 62.81 51.35 62.71 51.14 62.55 C 50.71 62.22 50.35 61.81 50.08 61.33 C 49.69 60.64 49.4 59.89 49.21 59.12 C 48.98 58.18 48.87 57.21 48.87 56.25 L 48.87 56.25 Z " fill-rule="evenodd" fill="rgb(255,255,255)"/><path d=" M 40.87 49.409 L 40.87 49.409 L 40.87 60.39 C 40.87 60.66 40.98 60.91 41.17 61.1 C 41.36 61.29 41.61 61.39 41.87 61.39 C 42.14 61.39 42.39 61.29 42.58 61.1 C 42.77 60.91 42.87 60.66 42.87 60.39 L 42.87 46.68 C 42.87 46.41 42.77 46.16 42.58 45.97 C 42.39 45.78 42.14 45.68 41.87 45.68 C 41.61 45.68 41.36 45.78 41.17 45.97 C 41.152 45.988 41.134 46.007 41.119 46.028 C 41.114 46.026 41.112 46.028 41.11 46.03 L 37.11 50.74 C 36.94 50.95 36.86 51.21 36.88 51.47 C 36.9 51.74 37.03 51.98 37.23 52.15 C 37.43 52.33 37.69 52.41 37.96 52.39 C 38.22 52.37 38.47 52.24 38.64 52.04 L 40.87 49.409 Z  M 18.875 40.391 C 16.656 40.547 16.531 67.766 18.875 68.391 C 29.541 64.783 38.894 64.803 46.875 68.391 L 46.875 40.391 C 38.89 36.295 29.587 36.325 18.875 40.391 L 18.875 40.391 Z " fill-rule="evenodd" fill="rgb(255,255,255)"/><path d=" M 78.207 61.602 C 78.926 61.355 79.65 61.096 80.379 60.819 C 82.598 60.663 82.723 33.444 80.379 32.819 C 69.714 36.428 60.36 36.408 52.379 32.819 L 52.379 32.819 C 44.395 28.723 35.092 28.753 24.379 32.819 C 23.829 32.858 23.408 34.56 23.129 37.159 C 32.93 33.89 41.516 34.124 48.957 37.941 L 48.957 37.941 C 56.938 41.53 66.291 41.55 76.957 37.941 C 78.72 38.411 79.086 53.924 78.207 61.602 Z " fill-rule="evenodd" fill="rgb(255,255,255)"/></g></svg>