<?xml version="1.0" encoding="UTF-8" standalone="no"?><!-- Generator: Gravit.io --><svg xmlns="http://www.w3.org/2000/svg" xmlns:xlink="http://www.w3.org/1999/xlink" style="isolation:isolate" viewBox="0 0 100 100" width="100pt" height="100pt"><defs><clipPath id="_clipPath_N7zNQ7XfUTzdCfBaFEEKZIqQf0dWPHSO"><rect width="100" height="100"/></clipPath></defs><g clip-path="url(#_clipPath_N7zNQ7XfUTzdCfBaFEEKZIqQf0dWPHSO)"><path d=" M 4 50 C 4 24.612 24.612 4 50 4 C 75.388 4 96 24.612 96 50 C 96 75.388 75.388 96 50 96 C 24.612 96 4 75.388 4 50 Z  M 14.25 50 C 14.25 29.993 30.269 13.75 50 13.75 C 69.731 13.75 85.75 29.993 85.75 50 C 85.75 70.007 69.731 86.25 50 86.25 C 30.269 86.25 14.25 70.007 14.25 50 Z " fill-rule="evenodd" fill="rgb(255,255,255)"/><circle vector-effect="non-scaling-stroke" cx="50" cy="50" r="6" fill="rgb(255,255,255)"/><path d=" M 46.336 46.625 Q 47.463 20.063 50.47 20 Q 53.476 19.938 53.664 46.625 L 46.336 46.625 Z " fill="rgb(255,255,255)"/><path d=" M 55.585 50 Q 66.793 63.653 64.849 65.565 Q 62.906 67.477 50 55.585 L 55.585 50 Z " fill="rgb(255,255,255)"/></g></svg>