<?xml version="1.0" encoding="UTF-8" standalone="no"?><!-- Generator: Gravit.io --><svg xmlns="http://www.w3.org/2000/svg" xmlns:xlink="http://www.w3.org/1999/xlink" style="isolation:isolate" viewBox="0 0 100 100" width="100pt" height="100pt"><defs><clipPath id="_clipPath_DWqpMtUVNqdRfln2UkHRCVnRYIfejsv7"><rect width="100" height="100"/></clipPath></defs><g clip-path="url(#_clipPath_DWqpMtUVNqdRfln2UkHRCVnRYIfejsv7)"><rect width="100" height="100" style="fill:rgb(157,82,82)" fill-opacity="0"/><path d=" M 50 64.5 C 41.997 64.5 35.5 58.003 35.5 50 C 35.5 41.997 41.997 35.5 50 35.5 C 58.003 35.5 64.5 41.997 64.5 50 C 64.5 58.003 58.003 64.5 50 64.5 Z  M 50 61.25 C 43.791 61.25 38.75 56.209 38.75 50 C 38.75 43.791 43.791 38.75 50 38.75 C 56.209 38.75 61.25 43.791 61.25 50 C 61.25 56.209 56.209 61.25 50 61.25 Z " fill-rule="evenodd" fill="rgb(255,255,255)"/><path d=" M 48.586 51.414 C 47.805 50.634 47.805 49.366 48.586 48.586 C 49.366 47.805 50.634 47.805 51.414 48.586 C 52.195 49.366 52.195 50.634 51.414 51.414 C 50.634 52.195 49.366 52.195 48.586 51.414 Z " fill="rgb(255,255,255)"/><path d=" M 48 49.812 L 50 40.812 L 52 49.812 L 48 49.812 Z " fill="rgb(255,255,255)"/><path d=" M 68 50 C 68 41.997 74.497 35.5 82.5 35.5 C 90.503 35.5 97 41.997 97 50 C 97 58.003 90.503 64.5 82.5 64.5 C 74.497 64.5 68 58.003 68 50 Z  M 71.25 50 C 71.25 43.791 76.291 38.75 82.5 38.75 C 88.709 38.75 93.75 43.791 93.75 50 C 93.75 56.209 88.709 61.25 82.5 61.25 C 76.291 61.25 71.25 56.209 71.25 50 Z " fill-rule="evenodd" fill="rgb(255,255,255)"/><circle vector-effect="non-scaling-stroke" cx="82.5" cy="50" r="2" fill="rgb(255,255,255)"/><path d=" M 81.219 48.453 L 88.997 43.503 L 84.047 51.281 L 81.219 48.453 Z " fill="rgb(255,255,255)"/><path d=" M 32 50 C 32 58.003 25.503 64.5 17.5 64.5 C 9.497 64.5 3 58.003 3 50 C 3 41.997 9.497 35.5 17.5 35.5 C 25.503 35.5 32 41.997 32 50 Z  M 28.75 50 C 28.75 56.209 23.709 61.25 17.5 61.25 C 11.291 61.25 6.25 56.209 6.25 50 C 6.25 43.791 11.291 38.75 17.5 38.75 C 23.709 38.75 28.75 43.791 28.75 50 Z " fill-rule="evenodd" fill="rgb(255,255,255)"/><path d=" M 19.5 50 C 19.5 51.104 18.604 52 17.5 52 C 16.396 52 15.5 51.104 15.5 50 C 15.5 48.896 16.396 48 17.5 48 C 18.604 48 19.5 48.896 19.5 50 Z " fill="rgb(255,255,255)"/><path d=" M 18.781 51.547 L 11.003 56.497 L 15.953 48.719 L 18.781 51.547 Z " fill="rgb(255,255,255)"/></g></svg>