<?xml version="1.0" encoding="UTF-8" standalone="no"?><!-- Generator: Gravit.io --><svg xmlns="http://www.w3.org/2000/svg" xmlns:xlink="http://www.w3.org/1999/xlink" style="isolation:isolate" viewBox="0 0 100 100" width="100pt" height="100pt"><defs><clipPath id="_clipPath_uVx2GdcJUcVsS5P2SOgLAvhnHtoULmDT"><rect width="100" height="100"/></clipPath></defs><g clip-path="url(#_clipPath_uVx2GdcJUcVsS5P2SOgLAvhnHtoULmDT)"><rect width="100" height="100" style="fill:rgb(0,0,0)" fill-opacity="0"/><circle vector-effect="non-scaling-stroke" cx="50.07235865120608" cy="50.50000000000001" r="49.49999999999999" fill="rgb(90,55,181)"/><path d=" M 74.027 30.913 C 78.411 36.241 81.036 43.066 81.036 50.5 C 81.036 67.589 67.162 81.464 50.072 81.464 C 42.639 81.464 35.814 78.839 30.485 74.455 L 34.155 70.785 C 35.949 72.203 37.929 73.377 40.041 74.278 C 43.215 75.619 46.628 76.31 50.072 76.303 C 56.91 76.303 63.477 73.581 68.315 68.743 C 73.153 63.905 75.876 57.338 75.876 50.5 C 75.882 47.055 75.192 43.643 73.85 40.469 C 72.95 38.357 71.776 36.377 70.357 34.582 L 74.027 30.913 Z " fill-rule="evenodd" fill="rgb(255,255,255)"/><path d=" M 25.944 69.874 C 21.664 64.577 19.109 57.835 19.109 50.5 C 19.109 33.411 32.983 19.536 50.072 19.536 C 57.407 19.536 64.15 22.092 69.447 26.371 L 65.773 30.045 C 64.036 28.703 62.131 27.586 60.103 26.722 C 56.93 25.381 53.517 24.69 50.072 24.697 C 43.235 24.697 36.668 27.419 31.83 32.257 C 26.991 37.095 24.269 43.662 24.269 50.5 C 24.263 53.945 24.953 57.357 26.295 60.531 C 27.159 62.558 28.275 64.464 29.618 66.2 L 25.944 69.874 Z " fill-rule="evenodd" fill="rgb(255,255,255)"/><line x1="49.457" y1="51.761" x2="49.457" y2="64.369" vector-effect="non-scaling-stroke" stroke-width="5" stroke="rgb(255,255,255)" stroke-linejoin="miter" stroke-linecap="square" stroke-miterlimit="3"/><line x1="45.586" y1="65.014" x2="53.327" y2="65.014" vector-effect="non-scaling-stroke" stroke-width="5" stroke="rgb(255,255,255)" stroke-linejoin="miter" stroke-linecap="square" stroke-miterlimit="3"/><g><line x1="49.457" y1="40.501" x2="49.457" y2="51.761" vector-effect="non-scaling-stroke" stroke-width="5" stroke="rgb(255,255,255)" stroke-linejoin="miter" stroke-linecap="square" stroke-miterlimit="3"/><line x1="48.35" y1="39.9" x2="42.823" y2="44.049" vector-effect="non-scaling-stroke" stroke-width="5" stroke="rgb(255,255,255)" stroke-linejoin="miter" stroke-linecap="butt" stroke-miterlimit="3"/></g><g clip-path="url(#_clipPath_cxHGR7ZlI9wuchi2ddRszW0lRHJWTlKQ)"><text transform="matrix(0.645,0,0,0.645,45.755,32.971)" style="font-family:'Open Sans';font-weight:700;font-size:12px;font-style:normal;fill:#ffffff;stroke:none;">12</text></g><defs><clipPath id="_clipPath_cxHGR7ZlI9wuchi2ddRszW0lRHJWTlKQ"><rect x="0" y="0" width="15.477" height="16" transform="matrix(0.645,0,0,0.645,45.755,24.697)"/></clipPath></defs><g clip-path="url(#_clipPath_j2CfVkQSA8jiJzqCTYvlGAgPpnypE5Ky)"><text transform="matrix(0.645,0,0,0.645,26.849,53.613)" style="font-family:'Open Sans';font-weight:700;font-size:12px;font-style:normal;fill:#ffffff;stroke:none;">9</text></g><defs><clipPath id="_clipPath_j2CfVkQSA8jiJzqCTYvlGAgPpnypE5Ky"><rect x="0" y="0" width="9.477" height="15.046" transform="matrix(0.645,0,0,0.645,26.849,45.339)"/></clipPath></defs><g clip-path="url(#_clipPath_0wcP7Ewe7ngNVA6DkdxZ3OUOm749efRM)"><text transform="matrix(0.645,0,0,0.645,28.477,42.647)" style="font-family:'Open Sans';font-weight:700;font-size:10px;font-style:normal;fill:#ffffff;stroke:none;">10</text></g><defs><clipPath id="_clipPath_0wcP7Ewe7ngNVA6DkdxZ3OUOm749efRM"><rect x="0" y="0" width="15.477" height="16" transform="matrix(0.645,0,0,0.645,28.477,34.373)"/></clipPath></defs><g clip-path="url(#_clipPath_EV267POFk7cHpTHJQ2wsNkNyBL972waS)"><text transform="matrix(0.645,0,0,0.645,30.551,63.935)" style="font-family:'Open Sans';font-weight:700;font-size:10px;font-style:normal;fill:#ffffff;stroke:none;">8</text></g><defs><clipPath id="_clipPath_EV267POFk7cHpTHJQ2wsNkNyBL972waS"><rect x="0" y="0" width="15.477" height="16" transform="matrix(0.645,0,0,0.645,30.551,55.661)"/></clipPath></defs><g clip-path="url(#_clipPath_XJetlWPWa3iPrDRMfzcBQsgN6a1lIf3S)"><text transform="matrix(0.645,0,0,0.645,59.103,34.906)" style="font-family:'Open Sans';font-weight:700;font-size:10px;font-style:normal;fill:#ffffff;stroke:none;">1</text></g><defs><clipPath id="_clipPath_XJetlWPWa3iPrDRMfzcBQsgN6a1lIf3S"><rect x="0" y="0" width="15.477" height="16" transform="matrix(0.645,0,0,0.645,59.103,26.632)"/></clipPath></defs><g clip-path="url(#_clipPath_cczLlVSEDREbaGYnghcvo6u6vQtcs7jE)"><text transform="matrix(0.645,0,0,0.645,35.543,34.906)" style="font-family:'Open Sans';font-weight:700;font-size:10px;font-style:normal;fill:#ffffff;stroke:none;">11</text></g><defs><clipPath id="_clipPath_cczLlVSEDREbaGYnghcvo6u6vQtcs7jE"><rect x="0" y="0" width="15.477" height="16" transform="matrix(0.645,0,0,0.645,35.543,26.632)"/></clipPath></defs><g clip-path="url(#_clipPath_GARBAnxHx3VAJmA8AgIHdRQU1NLQdzEb)"><text transform="matrix(0.645,0,0,0.645,55.878,56.764)" style="font-family:'Open Sans';font-weight:700;font-size:30px;font-style:normal;fill:#ffffff;stroke:none;">zł</text></g><defs><clipPath id="_clipPath_GARBAnxHx3VAJmA8AgIHdRQU1NLQdzEb"><rect x="0" y="0" width="27" height="40.854" transform="matrix(0.645,0,0,0.645,55.878,36.08)"/></clipPath></defs></g></svg>