<?xml version="1.0" encoding="UTF-8" standalone="no"?><!-- Generator: Gravit.io --><svg xmlns="http://www.w3.org/2000/svg" xmlns:xlink="http://www.w3.org/1999/xlink" style="isolation:isolate" viewBox="0 0 100 100" width="100pt" height="100pt"><defs><clipPath id="_clipPath_m4IdmaLy46JPuJKURj7L7i9pXIMTNlye"><rect width="100" height="100"/></clipPath></defs><g clip-path="url(#_clipPath_m4IdmaLy46JPuJKURj7L7i9pXIMTNlye)"><rect width="100" height="100" style="fill:rgb(157,82,82)" fill-opacity="0"/><g style="isolation:isolate"><path d=" M 58.341 29.639 L 68.549 19.431 C 70.946 20.887 73.208 22.65 75.279 24.721 C 77.35 26.792 79.113 29.054 80.569 31.451 L 70.361 41.659 C 69.288 39.034 67.687 36.574 65.556 34.444 C 63.426 32.313 60.966 30.712 58.341 29.639 Z  M 29.639 58.341 L 19.431 68.549 C 20.887 70.946 22.65 73.208 24.721 75.279 C 26.792 77.35 29.054 79.113 31.451 80.569 L 41.659 70.361 C 39.034 69.288 36.574 67.687 34.444 65.556 C 32.313 63.426 30.712 60.966 29.639 58.341 Z " fill-rule="evenodd" fill="rgb(255,255,255)"/><path d=" M 58.341 70.361 L 68.549 80.569 C 70.946 79.113 73.208 77.35 75.279 75.279 C 77.35 73.208 79.113 70.946 80.569 68.549 L 70.361 58.341 C 69.288 60.966 67.687 63.426 65.556 65.556 C 63.426 67.687 60.966 69.288 58.341 70.361 Z  M 29.639 41.659 L 19.431 31.451 C 20.887 29.054 22.65 26.792 24.721 24.721 C 26.792 22.65 29.054 20.887 31.451 19.431 L 41.659 29.639 C 39.034 30.712 36.574 32.313 34.444 34.444 C 32.313 36.574 30.712 39.034 29.639 41.659 Z " fill-rule="evenodd" fill="rgb(255,255,255)"/><path d=" M 70.295 58.5 L 84.732 58.5 C 85.397 55.775 85.75 52.929 85.75 50 C 85.75 47.071 85.397 44.225 84.732 41.5 L 70.295 41.5 C 71.393 44.116 72 46.988 72 50 C 72 53.012 71.393 55.884 70.295 58.5 Z  M 29.705 58.5 L 15.268 58.5 C 14.603 55.775 14.25 52.929 14.25 50 C 14.25 47.071 14.603 44.225 15.268 41.5 L 29.705 41.5 C 28.607 44.116 28 46.988 28 50 C 28 53.012 28.607 55.884 29.705 58.5 Z " fill-rule="evenodd" fill="rgb(255,255,255)"/><path d=" M 58.5 29.705 L 58.5 15.268 C 55.775 14.603 52.929 14.25 50 14.25 C 47.071 14.25 44.225 14.603 41.5 15.268 L 41.5 29.705 C 44.116 28.607 46.988 28 50 28 C 53.012 28 55.884 28.607 58.5 29.705 Z  M 58.5 70.295 L 58.5 84.732 C 55.775 85.397 52.929 85.75 50 85.75 C 47.071 85.75 44.225 85.397 41.5 84.732 L 41.5 70.295 C 44.116 71.393 46.988 72 50 72 C 53.012 72 55.884 71.393 58.5 70.295 Z " fill-rule="evenodd" fill="rgb(255,255,255)"/></g><g style="isolation:isolate"><path d=" M 56.881 34.123 L 69.542 22.156 L 79.459 31.529 L 66.797 43.496 C 65.912 41.449 64.591 39.531 62.833 37.87 C 61.076 36.209 59.047 34.96 56.881 34.123 Z  M 33.203 56.504 L 20.541 68.471 L 30.458 77.844 L 43.119 65.877 C 40.953 65.04 38.924 63.791 37.167 62.13 C 35.409 60.469 34.088 58.551 33.203 56.504 Z " fill-rule="evenodd" fill="rgb(255,255,255)"/><path d=" M 56.881 65.877 L 69.542 77.844 L 79.459 68.471 L 66.797 56.504 C 65.912 58.551 64.591 60.469 62.833 62.13 C 61.076 63.791 59.047 65.04 56.881 65.877 Z  M 33.203 43.496 L 20.541 31.529 L 30.458 22.156 L 43.119 34.123 C 40.953 34.96 38.924 36.209 37.167 37.87 C 35.409 39.531 34.088 41.449 33.203 43.496 Z " fill-rule="evenodd" fill="rgb(255,255,255)"/><path d=" M 66.743 56.628 L 84.649 56.628 L 84.649 43.372 L 66.743 43.372 C 67.649 45.412 68.149 47.651 68.149 50 C 68.149 52.349 67.649 54.588 66.743 56.628 Z  M 33.257 56.628 L 15.351 56.628 L 15.351 43.372 L 33.257 43.372 C 32.351 45.412 31.851 47.651 31.851 50 C 31.851 52.349 32.351 54.588 33.257 56.628 Z " fill-rule="evenodd" fill="rgb(255,255,255)"/><path d=" M 57.012 34.175 L 57.012 17.25 L 42.988 17.25 L 42.988 34.175 C 45.146 33.318 47.515 32.845 50 32.845 C 52.485 32.845 54.854 33.318 57.012 34.175 Z  M 57.012 65.825 L 57.012 82.75 L 42.988 82.75 L 42.988 65.825 C 45.146 66.682 47.515 67.155 50 67.155 C 52.485 67.155 54.854 66.682 57.012 65.825 Z " fill-rule="evenodd" fill="rgb(255,255,255)"/></g><path d=" M 26 50 C 26 36.754 36.754 26 50 26 C 63.246 26 74 36.754 74 50 C 74 63.246 63.246 74 50 74 C 36.754 74 26 63.246 26 50 Z  M 36.5 50 C 36.5 42.549 42.549 36.5 50 36.5 C 57.451 36.5 63.5 42.549 63.5 50 C 63.5 57.451 57.451 63.5 50 63.5 C 42.549 63.5 36.5 57.451 36.5 50 Z " fill-rule="evenodd" fill="rgb(255,255,255)"/></g></svg>