<?xml version="1.0" encoding="UTF-8" standalone="no"?><!-- Generator: Gravit.io --><svg xmlns="http://www.w3.org/2000/svg" xmlns:xlink="http://www.w3.org/1999/xlink" style="isolation:isolate" viewBox="0 0 100 100" width="100pt" height="100pt"><defs><clipPath id="_clipPath_Rx0bMfPU9J7KKB4nP7cRBF3VHj5oEnCr"><rect width="100" height="100"/></clipPath></defs><g clip-path="url(#_clipPath_Rx0bMfPU9J7KKB4nP7cRBF3VHj5oEnCr)"><rect width="100" height="100" style="fill:rgb(157,82,82)" fill-opacity="0"/><g style="isolation:isolate"><path d=" M 46 59.733 L 55.921 50.188 L 46.377 40.267" fill="rgb(255,255,255)" vector-effect="non-scaling-stroke" stroke-width="9" stroke="rgb(255,255,255)" stroke-linejoin="miter" stroke-linecap="square" stroke-miterlimit="3"/><line x1="15.938" y1="50" x2="52.063" y2="50" vector-effect="non-scaling-stroke" stroke-width="10" stroke="rgb(255,255,255)" stroke-linejoin="miter" stroke-linecap="square" stroke-miterlimit="3"/><path d=" M 23 62.5 L 23 78.471 C 23 80.695 24.805 82.5 27.029 82.5 L 72.971 82.5 C 75.195 82.5 77 80.695 77 78.471 L 77 21.529 C 77 19.305 75.195 17.5 72.971 17.5 L 27.029 17.5 L 27.029 17.5 C 24.805 17.5 23 19.305 23 21.529 L 23 37.5 L 33 37.5 L 33 27.5 L 67 27.5 L 67 72.5 L 67 72.5 L 33 72.5 L 33 62.5 L 23 62.5 Z " fill-rule="evenodd" fill="rgb(255,255,255)"/></g></g></svg>